<svg viewBox="0 -25 512 511" xmlns="http://www.w3.org/2000/svg"><path d="m420.757812 280.980469c-19.042968-15.574219-40.09375-28.28125-62.417968-37.863281 1.730468-11.871094 2.613281-23.933594 2.613281-36.121094 0-77.761719-34.835937-150.289063-95.574219-198.976563l-9.378906-7.519531-9.378906 7.519531c-60.738282 48.6875-95.574219 121.214844-95.574219 198.976563 0 12.183594.886719 24.242187 2.632813 36.113281-22.332032 9.582031-43.390626 22.292969-62.4375 37.871094-82.667969 67.609375-89.285157 154.390625-91.242188 159.695312 8.433594 2.53125 44.925781 21.207031 101.714844 21.207031 57.855468 0 111.664062-19.328124 154.601562-51 43.285156 31.78125 97.292969 51 154.96875 51 55.421875 0 92.507813-18.730468 100.714844-21.207031-1.933594-5.234375-8.5625-92.070312-91.242188-159.695312zm-164.757812-241.628907c47.792969 42.710938 74.964844 103.136719 74.964844 167.644532 0 8.6875-.503906 17.257812-1.484375 25.691406-23.757813-7.039062-48.511719-10.699219-73.480469-10.699219-24.941406 0-49.671875 3.652344-73.402344 10.675781-1.03125-8.4375-1.566406-17.007812-1.566406-25.667968 0-64.507813 27.175781-124.933594 74.96875-167.644532zm-154.285156 392.542969c-23.089844 0-45.148438-3.429687-67.0625-10.453125 16.886718-65.640625 64.542968-119.738281 125.445312-148.0625 12.585938 45.144532 37.796875 85.636719 72.691406 118.042969-37.171874 25.5-82.375 40.472656-131.074218 40.472656zm155.285156-59.589843c-32.710938-29.242188-57.066406-67.339844-68.582031-109.910157 21.5625-6.769531 44.300781-10.417969 67.582031-10.417969 23.390625 0 46.25 3.6875 67.90625 10.519532-11.117188 42.800781-34.785156 80.742187-66.90625 109.808594zm154.285156 59.589843c-48.136718 0-93.402344-15.324219-130.839844-41.140625 34.585938-32.515625 59.195313-72.851562 71.519532-117.347656 60.878906 28.332031 108.511718 82.421875 125.386718 148.054688-21.914062 7.09375-43.203124 10.433593-66.066406 10.433593zm0 0"/></svg>