<svg width="22" height="22" viewBox="0 0 22 22" fill="none" xmlns="http://www.w3.org/2000/svg">
<path d="M20.5243 5.74763C19.5406 4.06227 18.2064 2.72797 16.5212 1.74443C14.8357 0.760836 12.9957 0.269165 10.9998 0.269165C9.00419 0.269165 7.16357 0.760987 5.47847 1.74443C3.79311 2.72792 2.45891 4.06227 1.47527 5.74763C0.491772 7.43294 0 9.27331 0 11.2687C0 13.6656 0.699306 15.821 2.09827 17.7353C3.49708 19.6498 5.30414 20.9746 7.5193 21.7098C7.77715 21.7576 7.96803 21.724 8.09214 21.6096C8.2163 21.4952 8.2783 21.3518 8.2783 21.1801C8.2783 21.1515 8.27584 20.8938 8.27108 20.4067C8.26616 19.9197 8.26385 19.4948 8.26385 19.1322L7.93441 19.1892C7.72437 19.2277 7.4594 19.244 7.13949 19.2394C6.81974 19.2349 6.48779 19.2014 6.14411 19.1391C5.80028 19.0773 5.48047 18.9341 5.18445 18.7097C4.88857 18.4853 4.67853 18.1916 4.55437 17.829L4.41115 17.4994C4.31568 17.28 4.16539 17.0363 3.96006 16.7691C3.75473 16.5016 3.5471 16.3203 3.33705 16.2249L3.23677 16.1531C3.16995 16.1054 3.10795 16.0478 3.05061 15.9811C2.99332 15.9143 2.95043 15.8475 2.92179 15.7806C2.89309 15.7136 2.91687 15.6587 2.99337 15.6156C3.06987 15.5725 3.20813 15.5516 3.40874 15.5516L3.69509 15.5944C3.88606 15.6326 4.12229 15.747 4.40407 15.938C4.6857 16.129 4.91722 16.3772 5.09866 16.6826C5.31839 17.0742 5.58311 17.3726 5.89359 17.5779C6.20381 17.7832 6.51659 17.8857 6.83163 17.8857C7.14667 17.8857 7.41876 17.8618 7.64802 17.8143C7.87703 17.7666 8.09188 17.6948 8.2925 17.5994C8.37843 16.9594 8.6124 16.4677 8.99421 16.124C8.45002 16.0668 7.96075 15.9807 7.52617 15.8661C7.09184 15.7515 6.64301 15.5654 6.17998 15.3073C5.7167 15.0496 5.33238 14.7296 5.02693 14.3478C4.72142 13.9659 4.47069 13.4644 4.2751 12.8439C4.0794 12.2232 3.98153 11.5071 3.98153 10.6955C3.98153 9.53999 4.35877 8.55664 5.11311 7.74497C4.75975 6.8762 4.79311 5.90229 5.21329 4.82333C5.4902 4.7373 5.90086 4.80186 6.44505 5.01662C6.98935 5.23148 7.38786 5.41554 7.641 5.56814C7.89413 5.72069 8.09695 5.84997 8.24975 5.95481C9.13793 5.70665 10.0545 5.58254 10.9997 5.58254C11.9449 5.58254 12.8617 5.70665 13.7499 5.95481L14.2942 5.61123C14.6664 5.38198 15.1059 5.17188 15.6116 4.9809C16.1177 4.79002 16.5047 4.73745 16.7722 4.82348C17.2017 5.90249 17.24 6.87635 16.8865 7.74512C17.6408 8.5568 18.0182 9.54039 18.0182 10.6957C18.0182 11.5073 17.9199 12.2256 17.7246 12.8511C17.5289 13.4767 17.276 13.9777 16.9658 14.355C16.6552 14.7323 16.2684 15.0498 15.8054 15.3075C15.3423 15.5653 14.8933 15.7514 14.459 15.8661C14.0244 15.9808 13.5352 16.067 12.991 16.1243C13.4873 16.5538 13.7355 17.2318 13.7355 18.1579V21.1797C13.7355 21.3514 13.7952 21.4947 13.9147 21.6092C14.0341 21.7236 14.2226 21.7572 14.4804 21.7093C16.6959 20.9742 18.5029 19.6494 19.9017 17.7349C21.3003 15.8205 21.9998 13.6652 21.9998 11.2683C21.9993 9.27316 21.5073 7.43294 20.5243 5.74763Z" fill="#191919"/>
</svg>
