<?xml version="1.0" encoding="iso-8859-1"?>
<!-- Generator: Adobe Illustrator 19.0.0, SVG Export Plug-In . SVG Version: 6.00 Build 0)  -->
<svg version="1.1" id="Capa_1" xmlns="http://www.w3.org/2000/svg" xmlns:xlink="http://www.w3.org/1999/xlink" x="0px" y="0px"
	 viewBox="0 0 512.001 512.001" style="enable-background:new 0 0 512.001 512.001;" xml:space="preserve">
<g>
	<g>
		<path d="M232.02,198.007l-0.968-4.544c-3.297-15.463-18.564-25.361-34.014-22.064c-15.461,3.294-25.357,18.553-22.063,34.015
			l0.969,4.544c1.596,7.489,6.013,13.908,12.436,18.075c4.702,3.051,10.066,4.626,15.544,4.626c2.005,0,4.025-0.212,6.032-0.64
			c7.489-1.596,13.909-6.013,18.076-12.436S233.617,205.497,232.02,198.007z M211.257,208.7c-1.261,1.943-3.203,3.279-5.468,3.762
			c-2.266,0.481-4.584,0.055-6.526-1.206c-1.943-1.261-3.279-3.201-3.761-5.466c0-0.001,0-0.001,0-0.002l-0.969-4.543
			c-0.482-2.266-0.055-4.583,1.206-6.526c1.261-1.943,3.201-3.279,5.467-3.762c0.607-0.129,1.213-0.191,1.81-0.191
			c4.003,0,7.612,2.796,8.479,6.866l0.969,4.543C212.945,204.439,212.517,206.757,211.257,208.7z"/>
	</g>
</g>
<g>
	<g>
		<path d="M145.534,284.394l-1.257-4.972c-1.874-7.425-6.527-13.675-13.102-17.599c-6.575-3.925-14.283-5.056-21.711-3.18
			c-15.325,3.869-24.646,19.485-20.778,34.813l1.256,4.972c1.874,7.425,6.527,13.675,13.102,17.599
			c4.501,2.688,9.534,4.063,14.643,4.063c2.354,0,4.726-0.293,7.067-0.884c7.425-1.874,13.675-6.527,17.6-13.102
			C146.279,299.53,147.409,291.82,145.534,284.394z M125.183,295.856c-1.188,1.989-3.078,3.396-5.323,3.963
			c-4.631,1.17-9.359-1.65-10.529-6.286l-1.255-4.971c-1.171-4.636,1.649-9.36,6.285-10.53c0.709-0.179,1.421-0.265,2.121-0.265
			c3.876,0,7.417,2.624,8.409,6.551l1.255,4.972C126.712,291.536,126.37,293.868,125.183,295.856z"/>
	</g>
</g>
<g>
	<g>
		<path d="M210.896,349.925c-3.905-3.903-10.234-3.903-14.14,0l-32.649,32.649c-3.904,3.904-3.904,10.235,0,14.141
			c1.953,1.952,4.511,2.929,7.07,2.929c2.559,0,5.117-0.977,7.07-2.929l32.649-32.649
			C214.801,360.161,214.801,353.83,210.896,349.925z"/>
	</g>
</g>
<g>
	<g>
		<path d="M231.002,329.82c-1.86-1.86-4.439-2.93-7.069-2.93c-2.64,0-5.209,1.07-7.069,2.93c-1.859,1.86-2.93,4.439-2.93,7.069
			s1.07,5.209,2.93,7.069c1.86,1.859,4.43,2.93,7.069,2.93c2.63,0,5.209-1.07,7.069-2.93c1.859-1.86,2.93-4.439,2.93-7.069
			S232.862,331.68,231.002,329.82z"/>
	</g>
</g>
<g>
	<g>
		<path d="M319.963,305.841c-4.74-5.931-11.505-9.664-19.049-10.507l-10.364-1.159c-15.569-1.737-29.664,9.514-31.406,25.088
			c-1.741,15.574,9.514,29.661,25.087,31.404l0.001,0.001l10.364,1.159c1.075,0.12,2.147,0.18,3.214,0.18
			c6.415,0,12.598-2.157,17.684-6.22c5.932-4.737,9.664-11.503,10.506-19.047C326.846,319.195,324.701,311.773,319.963,305.841z
			 M306.126,324.517c-0.25,2.237-1.355,4.242-3.114,5.646c-1.759,1.406-3.962,2.044-6.195,1.79l-10.363-1.158
			c-4.617-0.518-7.954-4.693-7.438-9.31c0.517-4.617,4.693-7.969,9.312-7.437l10.364,1.159c2.236,0.25,4.241,1.355,5.645,3.114
			C305.742,320.08,306.377,322.28,306.126,324.517z"/>
	</g>
</g>
<g>
	<g>
		<path d="M509.607,236.192c-1.749-2.049-4.249-3.305-6.937-3.484l-57.139-3.833c-2.688-0.181-5.113-1.424-6.83-3.5
			c-1.716-2.078-2.479-4.694-2.148-7.373l0.051-0.408c0.51-4.124,3.385-7.514,7.325-8.634l35.277-10.031
			c20.043-5.7,33.143-25.528,30.474-46.122c-0.668-5.152-1.438-10.428-2.289-15.68c-13.525-83.395-27.186-107.309-28.7-109.76
			c-1.151-1.867-2.886-3.304-4.933-4.087c-2.32-0.888-57.726-21.637-135.567-10.942c-11.351,1.561-19.516,12.111-18.199,23.521
			l4.525,39.222c0.843,7.305-4.405,13.996-11.7,14.918c-3.781,0.474-7.465-0.612-10.376-3.067c-2.913-2.456-4.609-5.903-4.778-9.71
			l-2.475-55.901c-0.235-5.321-4.602-9.524-9.929-9.557c-21.763-0.144-42.853,1.249-62.671,4.103
			c-20.593,2.966-35.088,22.231-32.31,42.946l8.353,62.321c0.809,6.031-2.612,11.721-8.318,13.836
			c-3.584,1.328-7.402,1.042-10.746-0.81c-3.346-1.851-5.618-4.931-6.397-8.675L156.39,44.896c-0.611-2.937-2.508-5.442-5.167-6.828
			c-2.659-1.388-5.801-1.507-8.557-0.326c-18.964,8.119-36.602,18.215-52.427,30.008C73.06,80.553,66.3,102.68,73.415,122.81
			l23.744,67.172c2.645,7.479-0.438,15.764-7.328,19.698c-4.579,2.613-9.972,2.884-14.79,0.741
			c-4.819-2.145-8.228-6.33-9.353-11.483l-14.581-66.855c-0.859-3.937-3.998-6.975-7.962-7.703
			c-3.966-0.729-7.978,0.995-10.181,4.369c-3.128,4.793-6.085,9.679-8.79,14.518C-3.162,192.182-7.535,248.83,12.181,298.683
			c16.374,41.402,47.231,72.883,87.773,90.022l-49.081,49.082c-3.904,3.904-3.904,10.235,0,14.141
			c1.953,1.952,4.511,2.929,7.07,2.929s5.117-0.977,7.07-2.929l49.093-49.091c14.905,35.037,40.996,63.396,74.737,80.832
			c24.411,12.616,51.65,19.053,79.434,19.052c14.396,0,28.944-1.729,43.31-5.223c3.838-0.934,6.768-4.04,7.475-7.928
			c0.707-3.886-0.942-7.825-4.206-10.05l-63.991-43.609c-3.182-2.169-5.295-5.452-5.948-9.247
			c-0.653-3.795,0.238-7.597,2.512-10.704c2.281-3.118,5.645-5.12,9.473-5.64c3.823-0.519,7.603,0.515,10.633,2.913l80.622,63.805
			c3.284,2.599,7.842,2.876,11.418,0.691c15.194-9.283,67.119-42.767,97.323-83.885c1.812-2.466,2.394-5.624,1.581-8.574
			c-0.812-2.949-2.93-5.364-5.747-6.556l-75.09-31.726c-6.108-2.582-9.625-8.955-8.55-15.499c1.206-7.35,7.7-12.489,15.14-11.966
			c20.483,1.455,51.042,3.617,73.242,5.188c22.075,1.552,41.818-12.947,46.942-34.5c3.553-14.949,6.093-30.635,7.548-46.621
			C512.203,240.908,511.355,238.241,509.607,236.192z M484.958,285.585c-2.85,11.979-13.815,20.033-26.078,19.178
			c-22.198-1.57-52.753-3.732-73.235-5.187c-17.814-1.268-33.398,11.061-36.289,28.673c-2.576,15.689,5.853,30.969,20.499,37.158
			l62.983,26.612c-25.146,29.584-60.692,54.055-77.801,64.965l-75.096-59.432c-7.328-5.802-16.464-8.309-25.732-7.048
			c-9.264,1.257-17.404,6.104-22.924,13.65c-5.501,7.521-7.66,16.72-6.078,25.903s6.693,17.13,14.394,22.378l43.45,29.61
			c-67.893,6.232-130.583-31.493-153.531-94.625l133.96-133.96c33.379,15.93,68.855,26.541,105.547,31.534
			c0.458,0.063,0.912,0.093,1.361,0.093c4.923,0,9.213-3.637,9.894-8.651c0.745-5.472-3.088-10.511-8.559-11.255
			c-32.285-4.393-63.573-13.396-93.19-26.774l114.543-114.547c3.904-3.904,3.904-10.235,0-14.141
			c-3.905-3.903-10.234-3.903-14.141,0l-89.245,89.245c-13.93-29.798-21.872-61.56-23.596-94.546l-0.071-1.358
			c-0.289-5.514-4.978-9.724-10.509-9.461c-5.514,0.289-9.75,4.994-9.461,10.509l0.071,1.356
			c1.987,37.984,11.616,74.466,28.595,108.47l-159.338,159.34c-39.325-14.207-69.243-43.105-84.605-81.949
			c-16.352-41.344-13.967-88.073,6.324-129.64l9.053,41.51c2.496,11.44,10.061,20.732,20.761,25.492
			c10.698,4.761,22.667,4.161,32.835-1.646c15.296-8.733,22.137-27.124,16.268-43.728l-23.744-67.172
			c-4.179-11.82-0.192-24.825,9.918-32.361c11.418-8.51,23.882-16.067,37.177-22.55l14.227,68.328
			c1.957,9.397,7.895,17.451,16.296,22.098c8.398,4.646,18.377,5.397,27.377,2.062c14.533-5.388,23.245-19.88,21.186-35.242
			l-8.353-62.322c-1.326-9.894,5.556-19.089,15.342-20.498c15.951-2.298,32.795-3.59,50.196-3.855l2.05,46.303
			c0.413,9.315,4.738,18.103,11.866,24.113c7.129,6.01,16.518,8.789,25.771,7.617c18.116-2.288,31.153-18.907,29.061-37.048
			l-4.525-39.222c-0.08-0.691,0.394-1.328,1.056-1.419c61.769-8.488,109.175,4.473,122.162,8.612
			c3.764,8.363,14.215,35.675,24.576,99.567c0.817,5.042,1.557,10.105,2.197,15.05c1.406,10.851-5.521,21.306-16.114,24.318
			l-35.276,10.029c-11.686,3.323-20.206,13.3-21.703,25.42l-0.051,0.408c-0.997,8.068,1.401,16.29,6.578,22.558
			c5.177,6.268,12.798,10.173,20.909,10.717l46.764,3.138C489.545,263.47,487.534,274.742,484.958,285.585z"/>
	</g>
</g>
<g>
	<g>
		<path d="M374.526,192.409h-8.299c-16.469,0-29.866,13.397-29.866,29.865c0,16.469,13.398,29.866,29.866,29.866h8.299
			c16.468,0,29.866-13.398,29.866-29.866S390.993,192.409,374.526,192.409z M374.526,232.144h-8.299c-5.442,0-9.87-4.427-9.87-9.87
			c0-5.441,4.427-9.868,9.87-9.868h8.299c5.442,0,9.869,4.427,9.869,9.868C384.395,227.718,379.968,232.144,374.526,232.144z"/>
	</g>
</g>
<g>
	<g>
		<path d="M424.134,78.669c-1.86-1.87-4.439-2.931-7.069-2.931c-2.63,0-5.209,1.061-7.069,2.931c-1.859,1.859-2.93,4.438-2.93,7.068
			s1.07,5.209,2.93,7.069c1.86,1.86,4.439,2.93,7.069,2.93c2.63,0,5.208-1.07,7.069-2.93c1.859-1.86,2.93-4.439,2.93-7.069
			C427.063,83.098,425.994,80.528,424.134,78.669z"/>
	</g>
</g>
<g>
	<g>
		<path d="M179.698,257.433c-15.777-25.708-26.34-53.819-31.393-83.551l-2.036-11.978c-0.926-5.443-6.07-9.11-11.532-8.182
			c-5.443,0.925-9.107,6.088-8.182,11.532l2.036,11.978c5.483,32.263,16.944,62.765,34.065,90.66c1.887,3.076,5.169,4.77,8.531,4.77
			c1.783,0,3.589-0.477,5.22-1.479C181.113,268.295,182.588,262.139,179.698,257.433z"/>
	</g>
</g>
<g>
</g>
<g>
</g>
<g>
</g>
<g>
</g>
<g>
</g>
<g>
</g>
<g>
</g>
<g>
</g>
<g>
</g>
<g>
</g>
<g>
</g>
<g>
</g>
<g>
</g>
<g>
</g>
<g>
</g>
</svg>
