<svg width="22" height="22" viewBox="0 0 22 22" fill="none" xmlns="http://www.w3.org/2000/svg">
<g clip-path="url(#clip0)">
<path d="M0.417076 15.1356L10.472 21.8401C10.8148 22.051 11.1815 22.0537 11.528 21.8401L21.5829 15.1356C21.8405 14.9642 22 14.6571 22 14.35V7.64737C22 7.34029 21.8405 7.0332 21.5829 6.86179L11.528 0.158203C11.1852 -0.0526305 10.8185 -0.0544638 10.472 0.158203L0.417076 6.86179C0.159492 7.0332 -7.62939e-06 7.34029 -7.62939e-06 7.64737V14.35C-7.62939e-06 14.6571 0.159492 14.9642 0.417076 15.1356ZM10.0549 19.2863L2.65191 14.351L5.95466 12.1409L10.0549 14.879V19.2863ZM11.9451 19.2863V14.879L16.0453 12.1409L19.3481 14.351L11.9451 19.2863ZM20.1098 12.5818L17.7402 10.9987L20.1098 9.4147V12.5818ZM11.9451 2.71204L19.3481 7.64737L16.0453 9.85745L11.9451 7.11937V2.71204ZM11 8.76387L14.3394 10.9987L11 13.2335L7.66058 10.9987L11 8.76387ZM10.0549 2.71204V7.11937L5.95466 9.85745L2.65191 7.64737L10.0549 2.71204ZM1.89108 9.41654V9.41562L4.26066 10.9996L1.89108 12.5836V9.41654Z" fill="#191919"/>
</g>
<defs>
<clipPath id="clip0">
<rect width="22" height="22" fill="white"/>
</clipPath>
</defs>
</svg>
