<svg width="22" height="22" viewBox="0 0 22 22" fill="none" xmlns="http://www.w3.org/2000/svg">
<path d="M4.99863 7.31909H0.272106V21.5129H4.99863V7.31909Z" fill="#191919"/>
<path d="M20.5103 8.61556C19.5175 7.53175 18.2043 6.98975 16.5716 6.98975C15.9701 6.98975 15.4233 7.06374 14.9314 7.21184C14.4397 7.35983 14.0245 7.56747 13.6854 7.83486C13.3465 8.10225 13.0766 8.35048 12.8762 8.57954C12.6857 8.79711 12.4994 9.05056 12.3176 9.33726V7.31894H7.60515L7.6196 8.00653C7.62928 8.46501 7.63405 9.87811 7.63405 12.246C7.63405 14.6142 7.62452 17.7031 7.60535 21.513H12.3176V13.5923C12.3176 13.1054 12.3698 12.7188 12.4751 12.4321C12.6757 11.9448 12.9786 11.5369 13.3846 11.2076C13.7906 10.8779 14.2942 10.7132 14.8959 10.7132C15.7168 10.7132 16.321 10.9973 16.7078 11.5654C17.0944 12.1335 17.2878 12.9189 17.2878 13.9216V21.5126H22V13.3777C21.9996 11.2863 21.5035 9.69902 20.5103 8.61556Z" fill="#191919"/>
<path d="M2.66401 0.486938C1.87158 0.486938 1.22949 0.71866 0.737604 1.18165C0.245768 1.64474 0 2.22939 0 2.93614C0 3.63301 0.238694 4.21565 0.716133 4.68341C1.19342 5.15122 1.82372 5.38525 2.60667 5.38525H2.63532C3.43749 5.38525 4.08449 5.15142 4.57618 4.68341C5.06786 4.21565 5.30891 3.63321 5.29943 2.93614C5.2899 2.22944 5.04624 1.64474 4.56895 1.18165C4.09171 0.718459 3.4565 0.486938 2.66401 0.486938Z" fill="#191919"/>
</svg>
